<mxfile host="app.diagrams.net" modified="2023-08-10T01:30:12.696Z" agent="Mozilla/5.0 (Macintosh; Intel Mac OS X 10_15_7) AppleWebKit/537.36 (KHTML, like Gecko) Chrome/115.0.0.0 Safari/537.36" etag="IacIVE3lCTu8V77cQNf2" version="21.6.7" type="github">
  <diagram id="R2lEEEUBdFMjLlhIrx00" name="Page-1">
    <mxGraphModel dx="1114" dy="1328" grid="0" gridSize="10" guides="1" tooltips="1" connect="1" arrows="1" fold="1" page="0" pageScale="1" pageWidth="850" pageHeight="1100" math="0" shadow="0" extFonts="Permanent Marker^https://fonts.googleapis.com/css?family=Permanent+Marker">
      <root>
        <mxCell id="0" />
        <mxCell id="1" parent="0" />
        <mxCell id="C-vyLk0tnHw3VtMMgP7b-1" value="" style="edgeStyle=entityRelationEdgeStyle;endArrow=ERzeroToMany;startArrow=ERoneToMany;endFill=1;startFill=0;entryX=0;entryY=0.5;entryDx=0;entryDy=0;exitX=1.025;exitY=0.733;exitDx=0;exitDy=0;exitPerimeter=0;" parent="1" source="uuvdcwY7xm3CegUsN7c4-60" target="C-vyLk0tnHw3VtMMgP7b-3" edge="1">
          <mxGeometry width="100" height="100" relative="1" as="geometry">
            <mxPoint x="340" y="720" as="sourcePoint" />
            <mxPoint x="440" y="620" as="targetPoint" />
          </mxGeometry>
        </mxCell>
        <mxCell id="C-vyLk0tnHw3VtMMgP7b-2" value="edition" style="shape=table;startSize=30;container=1;collapsible=1;childLayout=tableLayout;fixedRows=1;rowLines=0;fontStyle=1;align=center;resizeLast=1;fillColor=#fff2cc;strokeColor=#d6b656;" parent="1" vertex="1">
          <mxGeometry x="458" y="90" width="240" height="340" as="geometry" />
        </mxCell>
        <mxCell id="C-vyLk0tnHw3VtMMgP7b-3" value="" style="shape=partialRectangle;collapsible=0;dropTarget=0;pointerEvents=0;points=[[0,0.5],[1,0.5]];portConstraint=eastwest;top=0;left=0;right=0;bottom=1;" parent="C-vyLk0tnHw3VtMMgP7b-2" vertex="1">
          <mxGeometry y="30" width="240" height="30" as="geometry" />
        </mxCell>
        <mxCell id="C-vyLk0tnHw3VtMMgP7b-4" value="PK" style="shape=partialRectangle;overflow=hidden;connectable=0;top=0;left=0;bottom=0;right=0;fontStyle=1;" parent="C-vyLk0tnHw3VtMMgP7b-3" vertex="1">
          <mxGeometry width="30" height="30" as="geometry">
            <mxRectangle width="30" height="30" as="alternateBounds" />
          </mxGeometry>
        </mxCell>
        <mxCell id="C-vyLk0tnHw3VtMMgP7b-5" value="edition_id str" style="shape=partialRectangle;overflow=hidden;connectable=0;top=0;left=0;bottom=0;right=0;align=left;spacingLeft=6;fontStyle=5;" parent="C-vyLk0tnHw3VtMMgP7b-3" vertex="1">
          <mxGeometry x="30" width="210" height="30" as="geometry">
            <mxRectangle width="210" height="30" as="alternateBounds" />
          </mxGeometry>
        </mxCell>
        <mxCell id="C-vyLk0tnHw3VtMMgP7b-9" value="" style="shape=partialRectangle;collapsible=0;dropTarget=0;pointerEvents=0;points=[[0,0.5],[1,0.5]];portConstraint=eastwest;top=0;left=0;right=0;bottom=0;" parent="C-vyLk0tnHw3VtMMgP7b-2" vertex="1">
          <mxGeometry y="60" width="240" height="280" as="geometry" />
        </mxCell>
        <mxCell id="C-vyLk0tnHw3VtMMgP7b-10" value="" style="shape=partialRectangle;overflow=hidden;connectable=0;top=0;left=0;bottom=0;right=0;" parent="C-vyLk0tnHw3VtMMgP7b-9" vertex="1">
          <mxGeometry width="30" height="280" as="geometry">
            <mxRectangle width="30" height="280" as="alternateBounds" />
          </mxGeometry>
        </mxCell>
        <mxCell id="C-vyLk0tnHw3VtMMgP7b-11" value="title str&#xa;isbn - str&#xa;rating - float&#xa;num_ratings - int&#xa;like_percent - int&#xa;bbe_score - int&#xa;bbe_votes - int&#xa;format - str&#xa;edition - str&#xa;pub_date - date&#xa;first_pub_date - date&#xa;description - str&#xa;series - str&#xa;series_num - str&#xa;language - str&#xa;pagesÂ  - int&#xa;publisher - str&#xa;cover_url - str&#xa;price - float" style="shape=partialRectangle;overflow=hidden;connectable=0;top=0;left=0;bottom=0;right=0;align=left;spacingLeft=6;verticalAlign=top;" parent="C-vyLk0tnHw3VtMMgP7b-9" vertex="1">
          <mxGeometry x="30" width="210" height="280" as="geometry">
            <mxRectangle width="210" height="280" as="alternateBounds" />
          </mxGeometry>
        </mxCell>
        <mxCell id="C-vyLk0tnHw3VtMMgP7b-23" value="creator" style="shape=table;startSize=30;container=1;collapsible=1;childLayout=tableLayout;fixedRows=1;rowLines=0;fontStyle=1;align=center;resizeLast=1;" parent="1" vertex="1">
          <mxGeometry x="220" y="-32" width="169.75" height="150" as="geometry" />
        </mxCell>
        <mxCell id="uuvdcwY7xm3CegUsN7c4-60" style="shape=partialRectangle;collapsible=0;dropTarget=0;pointerEvents=0;points=[[0,0.5],[1,0.5]];portConstraint=eastwest;top=0;left=0;right=0;bottom=1;" parent="C-vyLk0tnHw3VtMMgP7b-23" vertex="1">
          <mxGeometry y="30" width="169.75" height="30" as="geometry" />
        </mxCell>
        <mxCell id="uuvdcwY7xm3CegUsN7c4-61" value="FK" style="shape=partialRectangle;overflow=hidden;connectable=0;top=0;left=0;bottom=0;right=0;fontStyle=0;" parent="uuvdcwY7xm3CegUsN7c4-60" vertex="1">
          <mxGeometry width="30" height="30" as="geometry">
            <mxRectangle width="30" height="30" as="alternateBounds" />
          </mxGeometry>
        </mxCell>
        <mxCell id="uuvdcwY7xm3CegUsN7c4-62" value="edition_id" style="shape=partialRectangle;overflow=hidden;connectable=0;top=0;left=0;bottom=0;right=0;align=left;spacingLeft=6;fontStyle=4;" parent="uuvdcwY7xm3CegUsN7c4-60" vertex="1">
          <mxGeometry x="30" width="139.75" height="30" as="geometry">
            <mxRectangle width="139.75" height="30" as="alternateBounds" />
          </mxGeometry>
        </mxCell>
        <mxCell id="C-vyLk0tnHw3VtMMgP7b-24" value="" style="shape=partialRectangle;collapsible=0;dropTarget=0;pointerEvents=0;points=[[0,0.5],[1,0.5]];portConstraint=eastwest;top=0;left=0;right=0;bottom=1;" parent="C-vyLk0tnHw3VtMMgP7b-23" vertex="1">
          <mxGeometry y="60" width="169.75" height="30" as="geometry" />
        </mxCell>
        <mxCell id="C-vyLk0tnHw3VtMMgP7b-25" value="PK" style="shape=partialRectangle;overflow=hidden;connectable=0;top=0;left=0;bottom=0;right=0;fontStyle=0;" parent="C-vyLk0tnHw3VtMMgP7b-24" vertex="1">
          <mxGeometry width="30" height="30" as="geometry">
            <mxRectangle width="30" height="30" as="alternateBounds" />
          </mxGeometry>
        </mxCell>
        <mxCell id="C-vyLk0tnHw3VtMMgP7b-26" value="creator_id" style="shape=partialRectangle;overflow=hidden;connectable=0;top=0;left=0;bottom=0;right=0;align=left;spacingLeft=6;fontStyle=4;" parent="C-vyLk0tnHw3VtMMgP7b-24" vertex="1">
          <mxGeometry x="30" width="139.75" height="30" as="geometry">
            <mxRectangle width="139.75" height="30" as="alternateBounds" />
          </mxGeometry>
        </mxCell>
        <mxCell id="C-vyLk0tnHw3VtMMgP7b-27" value="" style="shape=partialRectangle;collapsible=0;dropTarget=0;pointerEvents=0;points=[[0,0.5],[1,0.5]];portConstraint=eastwest;top=0;left=0;right=0;bottom=0;" parent="C-vyLk0tnHw3VtMMgP7b-23" vertex="1">
          <mxGeometry y="90" width="169.75" height="41" as="geometry" />
        </mxCell>
        <mxCell id="C-vyLk0tnHw3VtMMgP7b-28" value="" style="shape=partialRectangle;overflow=hidden;connectable=0;top=0;left=0;bottom=0;right=0;" parent="C-vyLk0tnHw3VtMMgP7b-27" vertex="1">
          <mxGeometry width="30" height="41" as="geometry">
            <mxRectangle width="30" height="41" as="alternateBounds" />
          </mxGeometry>
        </mxCell>
        <mxCell id="C-vyLk0tnHw3VtMMgP7b-29" value="creator_name&#xa;&#xa;role" style="shape=partialRectangle;overflow=hidden;connectable=0;top=0;left=0;bottom=0;right=0;align=left;spacingLeft=6;" parent="C-vyLk0tnHw3VtMMgP7b-27" vertex="1">
          <mxGeometry x="30" width="139.75" height="41" as="geometry">
            <mxRectangle width="139.75" height="41" as="alternateBounds" />
          </mxGeometry>
        </mxCell>
        <mxCell id="YFGoI8jdiH5YfzTE92s3-36" value="genre" style="shape=table;startSize=30;container=1;collapsible=1;childLayout=tableLayout;fixedRows=1;rowLines=0;fontStyle=1;align=center;resizeLast=1;fillColor=#fff2cc;strokeColor=#d6b656;" parent="1" vertex="1">
          <mxGeometry x="528.25" y="-36" width="169.75" height="100" as="geometry" />
        </mxCell>
        <mxCell id="YFGoI8jdiH5YfzTE92s3-37" value="" style="shape=partialRectangle;collapsible=0;dropTarget=0;pointerEvents=0;points=[[0,0.5],[1,0.5]];portConstraint=eastwest;top=0;left=0;right=0;bottom=1;" parent="YFGoI8jdiH5YfzTE92s3-36" vertex="1">
          <mxGeometry y="30" width="169.75" height="30" as="geometry" />
        </mxCell>
        <mxCell id="YFGoI8jdiH5YfzTE92s3-38" value="FK" style="shape=partialRectangle;overflow=hidden;connectable=0;top=0;left=0;bottom=0;right=0;fontStyle=0;" parent="YFGoI8jdiH5YfzTE92s3-37" vertex="1">
          <mxGeometry width="30" height="30" as="geometry">
            <mxRectangle width="30" height="30" as="alternateBounds" />
          </mxGeometry>
        </mxCell>
        <mxCell id="YFGoI8jdiH5YfzTE92s3-39" value="edition_id" style="shape=partialRectangle;overflow=hidden;connectable=0;top=0;left=0;bottom=0;right=0;align=left;spacingLeft=6;fontStyle=4;" parent="YFGoI8jdiH5YfzTE92s3-37" vertex="1">
          <mxGeometry x="30" width="139.75" height="30" as="geometry">
            <mxRectangle width="139.75" height="30" as="alternateBounds" />
          </mxGeometry>
        </mxCell>
        <mxCell id="YFGoI8jdiH5YfzTE92s3-40" value="" style="shape=partialRectangle;collapsible=0;dropTarget=0;pointerEvents=0;points=[[0,0.5],[1,0.5]];portConstraint=eastwest;top=0;left=0;right=0;bottom=0;" parent="YFGoI8jdiH5YfzTE92s3-36" vertex="1">
          <mxGeometry y="60" width="169.75" height="30" as="geometry" />
        </mxCell>
        <mxCell id="YFGoI8jdiH5YfzTE92s3-41" value="" style="shape=partialRectangle;overflow=hidden;connectable=0;top=0;left=0;bottom=0;right=0;" parent="YFGoI8jdiH5YfzTE92s3-40" vertex="1">
          <mxGeometry width="30" height="30" as="geometry">
            <mxRectangle width="30" height="30" as="alternateBounds" />
          </mxGeometry>
        </mxCell>
        <mxCell id="YFGoI8jdiH5YfzTE92s3-42" value="genre" style="shape=partialRectangle;overflow=hidden;connectable=0;top=0;left=0;bottom=0;right=0;align=left;spacingLeft=6;" parent="YFGoI8jdiH5YfzTE92s3-40" vertex="1">
          <mxGeometry x="30" width="139.75" height="30" as="geometry">
            <mxRectangle width="139.75" height="30" as="alternateBounds" />
          </mxGeometry>
        </mxCell>
        <mxCell id="YFGoI8jdiH5YfzTE92s3-52" value="character" style="shape=table;startSize=30;container=1;collapsible=1;childLayout=tableLayout;fixedRows=1;rowLines=0;fontStyle=1;align=center;resizeLast=1;fillColor=#fff2cc;strokeColor=#d6b656;" parent="1" vertex="1">
          <mxGeometry x="836" y="18" width="159.75" height="100" as="geometry" />
        </mxCell>
        <mxCell id="YFGoI8jdiH5YfzTE92s3-53" value="" style="shape=partialRectangle;collapsible=0;dropTarget=0;pointerEvents=0;points=[[0,0.5],[1,0.5]];portConstraint=eastwest;top=0;left=0;right=0;bottom=1;" parent="YFGoI8jdiH5YfzTE92s3-52" vertex="1">
          <mxGeometry y="30" width="159.75" height="30" as="geometry" />
        </mxCell>
        <mxCell id="YFGoI8jdiH5YfzTE92s3-54" value="FK" style="shape=partialRectangle;overflow=hidden;connectable=0;top=0;left=0;bottom=0;right=0;fontStyle=0;" parent="YFGoI8jdiH5YfzTE92s3-53" vertex="1">
          <mxGeometry width="30" height="30" as="geometry">
            <mxRectangle width="30" height="30" as="alternateBounds" />
          </mxGeometry>
        </mxCell>
        <mxCell id="YFGoI8jdiH5YfzTE92s3-55" value="edition_id" style="shape=partialRectangle;overflow=hidden;connectable=0;top=0;left=0;bottom=0;right=0;align=left;spacingLeft=6;fontStyle=4;" parent="YFGoI8jdiH5YfzTE92s3-53" vertex="1">
          <mxGeometry x="30" width="129.75" height="30" as="geometry">
            <mxRectangle width="129.75" height="30" as="alternateBounds" />
          </mxGeometry>
        </mxCell>
        <mxCell id="YFGoI8jdiH5YfzTE92s3-56" value="" style="shape=partialRectangle;collapsible=0;dropTarget=0;pointerEvents=0;points=[[0,0.5],[1,0.5]];portConstraint=eastwest;top=0;left=0;right=0;bottom=0;" parent="YFGoI8jdiH5YfzTE92s3-52" vertex="1">
          <mxGeometry y="60" width="159.75" height="30" as="geometry" />
        </mxCell>
        <mxCell id="YFGoI8jdiH5YfzTE92s3-57" value="" style="shape=partialRectangle;overflow=hidden;connectable=0;top=0;left=0;bottom=0;right=0;" parent="YFGoI8jdiH5YfzTE92s3-56" vertex="1">
          <mxGeometry width="30" height="30" as="geometry">
            <mxRectangle width="30" height="30" as="alternateBounds" />
          </mxGeometry>
        </mxCell>
        <mxCell id="YFGoI8jdiH5YfzTE92s3-58" value="char_name - str" style="shape=partialRectangle;overflow=hidden;connectable=0;top=0;left=0;bottom=0;right=0;align=left;spacingLeft=6;" parent="YFGoI8jdiH5YfzTE92s3-56" vertex="1">
          <mxGeometry x="30" width="129.75" height="30" as="geometry">
            <mxRectangle width="129.75" height="30" as="alternateBounds" />
          </mxGeometry>
        </mxCell>
        <mxCell id="YFGoI8jdiH5YfzTE92s3-81" value="" style="group" parent="1" vertex="1" connectable="0">
          <mxGeometry x="187" y="149" width="197.75" height="184" as="geometry" />
        </mxCell>
        <mxCell id="YFGoI8jdiH5YfzTE92s3-19" value="award" style="shape=table;startSize=30;container=1;collapsible=1;childLayout=tableLayout;fixedRows=1;rowLines=0;fontStyle=1;align=center;resizeLast=1;" parent="YFGoI8jdiH5YfzTE92s3-81" vertex="1">
          <mxGeometry width="197.75" height="154" as="geometry" />
        </mxCell>
        <mxCell id="uuvdcwY7xm3CegUsN7c4-63" style="shape=partialRectangle;collapsible=0;dropTarget=0;pointerEvents=0;points=[[0,0.5],[1,0.5]];portConstraint=eastwest;top=0;left=0;right=0;bottom=1;" parent="YFGoI8jdiH5YfzTE92s3-19" vertex="1">
          <mxGeometry y="30" width="197.75" height="30" as="geometry" />
        </mxCell>
        <mxCell id="uuvdcwY7xm3CegUsN7c4-64" value="FK" style="shape=partialRectangle;overflow=hidden;connectable=0;top=0;left=0;bottom=0;right=0;fontStyle=0;" parent="uuvdcwY7xm3CegUsN7c4-63" vertex="1">
          <mxGeometry width="30" height="30" as="geometry">
            <mxRectangle width="30" height="30" as="alternateBounds" />
          </mxGeometry>
        </mxCell>
        <mxCell id="uuvdcwY7xm3CegUsN7c4-65" value="edition_id" style="shape=partialRectangle;overflow=hidden;connectable=0;top=0;left=0;bottom=0;right=0;align=left;spacingLeft=6;fontStyle=4;" parent="uuvdcwY7xm3CegUsN7c4-63" vertex="1">
          <mxGeometry x="30" width="167.75" height="30" as="geometry">
            <mxRectangle width="167.75" height="30" as="alternateBounds" />
          </mxGeometry>
        </mxCell>
        <mxCell id="YFGoI8jdiH5YfzTE92s3-23" value="" style="shape=partialRectangle;collapsible=0;dropTarget=0;pointerEvents=0;points=[[0,0.5],[1,0.5]];portConstraint=eastwest;top=0;left=0;right=0;bottom=0;" parent="YFGoI8jdiH5YfzTE92s3-19" vertex="1">
          <mxGeometry y="60" width="197.75" height="33" as="geometry" />
        </mxCell>
        <mxCell id="YFGoI8jdiH5YfzTE92s3-24" value="" style="shape=partialRectangle;overflow=hidden;connectable=0;top=0;left=0;bottom=0;right=0;" parent="YFGoI8jdiH5YfzTE92s3-23" vertex="1">
          <mxGeometry width="30" height="33" as="geometry">
            <mxRectangle width="30" height="33" as="alternateBounds" />
          </mxGeometry>
        </mxCell>
        <mxCell id="YFGoI8jdiH5YfzTE92s3-25" value="award" style="shape=partialRectangle;overflow=hidden;connectable=0;top=0;left=0;bottom=0;right=0;align=left;spacingLeft=6;" parent="YFGoI8jdiH5YfzTE92s3-23" vertex="1">
          <mxGeometry x="30" width="167.75" height="33" as="geometry">
            <mxRectangle width="167.75" height="33" as="alternateBounds" />
          </mxGeometry>
        </mxCell>
        <mxCell id="uuvdcwY7xm3CegUsN7c4-66" style="shape=partialRectangle;collapsible=0;dropTarget=0;pointerEvents=0;points=[[0,0.5],[1,0.5]];portConstraint=eastwest;top=0;left=0;right=0;bottom=0;" parent="YFGoI8jdiH5YfzTE92s3-19" vertex="1">
          <mxGeometry y="93" width="197.75" height="33" as="geometry" />
        </mxCell>
        <mxCell id="uuvdcwY7xm3CegUsN7c4-67" style="shape=partialRectangle;overflow=hidden;connectable=0;top=0;left=0;bottom=0;right=0;" parent="uuvdcwY7xm3CegUsN7c4-66" vertex="1">
          <mxGeometry width="30" height="33" as="geometry">
            <mxRectangle width="30" height="33" as="alternateBounds" />
          </mxGeometry>
        </mxCell>
        <mxCell id="uuvdcwY7xm3CegUsN7c4-68" value="award_year" style="shape=partialRectangle;overflow=hidden;connectable=0;top=0;left=0;bottom=0;right=0;align=left;spacingLeft=6;" parent="uuvdcwY7xm3CegUsN7c4-66" vertex="1">
          <mxGeometry x="30" width="167.75" height="33" as="geometry">
            <mxRectangle width="167.75" height="33" as="alternateBounds" />
          </mxGeometry>
        </mxCell>
        <mxCell id="AO1zrGgT2cooBu88k1n--1" value="setting" style="shape=table;startSize=30;container=1;collapsible=1;childLayout=tableLayout;fixedRows=1;rowLines=0;fontStyle=1;align=center;resizeLast=1;fillColor=#fff2cc;strokeColor=#d6b656;" parent="1" vertex="1">
          <mxGeometry x="807" y="155" width="159.75" height="110" as="geometry" />
        </mxCell>
        <mxCell id="AO1zrGgT2cooBu88k1n--2" value="" style="shape=partialRectangle;collapsible=0;dropTarget=0;pointerEvents=0;points=[[0,0.5],[1,0.5]];portConstraint=eastwest;top=0;left=0;right=0;bottom=1;" parent="AO1zrGgT2cooBu88k1n--1" vertex="1">
          <mxGeometry y="30" width="159.75" height="30" as="geometry" />
        </mxCell>
        <mxCell id="AO1zrGgT2cooBu88k1n--3" value="FK" style="shape=partialRectangle;overflow=hidden;connectable=0;top=0;left=0;bottom=0;right=0;fontStyle=0;" parent="AO1zrGgT2cooBu88k1n--2" vertex="1">
          <mxGeometry width="30" height="30" as="geometry">
            <mxRectangle width="30" height="30" as="alternateBounds" />
          </mxGeometry>
        </mxCell>
        <mxCell id="AO1zrGgT2cooBu88k1n--4" value="edition_id" style="shape=partialRectangle;overflow=hidden;connectable=0;top=0;left=0;bottom=0;right=0;align=left;spacingLeft=6;fontStyle=4;" parent="AO1zrGgT2cooBu88k1n--2" vertex="1">
          <mxGeometry x="30" width="129.75" height="30" as="geometry">
            <mxRectangle width="129.75" height="30" as="alternateBounds" />
          </mxGeometry>
        </mxCell>
        <mxCell id="AO1zrGgT2cooBu88k1n--5" value="" style="shape=partialRectangle;collapsible=0;dropTarget=0;pointerEvents=0;points=[[0,0.5],[1,0.5]];portConstraint=eastwest;top=0;left=0;right=0;bottom=0;" parent="AO1zrGgT2cooBu88k1n--1" vertex="1">
          <mxGeometry y="60" width="159.75" height="30" as="geometry" />
        </mxCell>
        <mxCell id="AO1zrGgT2cooBu88k1n--6" value="" style="shape=partialRectangle;overflow=hidden;connectable=0;top=0;left=0;bottom=0;right=0;" parent="AO1zrGgT2cooBu88k1n--5" vertex="1">
          <mxGeometry width="30" height="30" as="geometry">
            <mxRectangle width="30" height="30" as="alternateBounds" />
          </mxGeometry>
        </mxCell>
        <mxCell id="AO1zrGgT2cooBu88k1n--7" value="setting" style="shape=partialRectangle;overflow=hidden;connectable=0;top=0;left=0;bottom=0;right=0;align=left;spacingLeft=6;" parent="AO1zrGgT2cooBu88k1n--5" vertex="1">
          <mxGeometry x="30" width="129.75" height="30" as="geometry">
            <mxRectangle width="129.75" height="30" as="alternateBounds" />
          </mxGeometry>
        </mxCell>
        <mxCell id="AO1zrGgT2cooBu88k1n--8" value="" style="shape=partialRectangle;collapsible=0;dropTarget=0;pointerEvents=0;points=[[0,0.5],[1,0.5]];portConstraint=eastwest;top=0;left=0;right=0;bottom=0;" parent="AO1zrGgT2cooBu88k1n--1" vertex="1">
          <mxGeometry y="90" width="159.75" height="20" as="geometry" />
        </mxCell>
        <mxCell id="AO1zrGgT2cooBu88k1n--9" value="" style="shape=partialRectangle;overflow=hidden;connectable=0;top=0;left=0;bottom=0;right=0;" parent="AO1zrGgT2cooBu88k1n--8" vertex="1">
          <mxGeometry width="30" height="20" as="geometry">
            <mxRectangle width="30" height="20" as="alternateBounds" />
          </mxGeometry>
        </mxCell>
        <mxCell id="AO1zrGgT2cooBu88k1n--10" value="" style="shape=partialRectangle;overflow=hidden;connectable=0;top=0;left=0;bottom=0;right=0;align=left;spacingLeft=6;" parent="AO1zrGgT2cooBu88k1n--8" vertex="1">
          <mxGeometry x="30" width="129.75" height="20" as="geometry">
            <mxRectangle width="129.75" height="20" as="alternateBounds" />
          </mxGeometry>
        </mxCell>
        <mxCell id="YFGoI8jdiH5YfzTE92s3-33" value="" style="edgeStyle=entityRelationEdgeStyle;endArrow=ERoneToMany;startArrow=ERoneToMany;endFill=0;startFill=0;entryX=0.999;entryY=0.742;entryDx=0;entryDy=0;entryPerimeter=0;exitX=0;exitY=0.5;exitDx=0;exitDy=0;" parent="1" source="C-vyLk0tnHw3VtMMgP7b-3" target="uuvdcwY7xm3CegUsN7c4-63" edge="1">
          <mxGeometry width="100" height="100" relative="1" as="geometry">
            <mxPoint x="468" y="145" as="sourcePoint" />
            <mxPoint x="453" as="targetPoint" />
          </mxGeometry>
        </mxCell>
        <mxCell id="YFGoI8jdiH5YfzTE92s3-62" value="" style="edgeStyle=entityRelationEdgeStyle;endArrow=ERzeroToMany;startArrow=ERoneToMany;endFill=1;startFill=0;entryX=1;entryY=0.5;entryDx=0;entryDy=0;exitX=0;exitY=0.5;exitDx=0;exitDy=0;" parent="1" source="YFGoI8jdiH5YfzTE92s3-53" target="C-vyLk0tnHw3VtMMgP7b-3" edge="1">
          <mxGeometry width="100" height="100" relative="1" as="geometry">
            <mxPoint x="708" y="49" as="sourcePoint" />
            <mxPoint x="699" y="135" as="targetPoint" />
          </mxGeometry>
        </mxCell>
        <mxCell id="YFGoI8jdiH5YfzTE92s3-43" value="" style="edgeStyle=entityRelationEdgeStyle;endArrow=ERzeroToMany;startArrow=ERoneToMany;endFill=1;startFill=0;exitX=1;exitY=0.5;exitDx=0;exitDy=0;entryX=1;entryY=0.5;entryDx=0;entryDy=0;" parent="1" source="YFGoI8jdiH5YfzTE92s3-37" target="C-vyLk0tnHw3VtMMgP7b-3" edge="1">
          <mxGeometry width="100" height="100" relative="1" as="geometry">
            <mxPoint x="778" y="241" as="sourcePoint" />
            <mxPoint x="708" y="145" as="targetPoint" />
          </mxGeometry>
        </mxCell>
        <mxCell id="C-vyLk0tnHw3VtMMgP7b-12" value="" style="edgeStyle=entityRelationEdgeStyle;endArrow=ERzeroToMany;startArrow=ERoneToMany;endFill=1;startFill=0;entryX=1;entryY=0.5;entryDx=0;entryDy=0;exitX=0;exitY=0.5;exitDx=0;exitDy=0;" parent="1" source="AO1zrGgT2cooBu88k1n--2" target="C-vyLk0tnHw3VtMMgP7b-3" edge="1">
          <mxGeometry width="100" height="100" relative="1" as="geometry">
            <mxPoint x="772" y="260.13" as="sourcePoint" />
            <mxPoint x="715" y="90" as="targetPoint" />
          </mxGeometry>
        </mxCell>
        <mxCell id="uuvdcwY7xm3CegUsN7c4-21" value="star_rating" style="shape=table;startSize=30;container=1;collapsible=1;childLayout=tableLayout;fixedRows=1;rowLines=0;fontStyle=1;align=center;resizeLast=1;fillColor=#fff2cc;strokeColor=#d6b656;" parent="1" vertex="1">
          <mxGeometry x="227" y="362" width="159.75" height="245" as="geometry" />
        </mxCell>
        <mxCell id="uuvdcwY7xm3CegUsN7c4-69" style="shape=partialRectangle;collapsible=0;dropTarget=0;pointerEvents=0;points=[[0,0.5],[1,0.5]];portConstraint=eastwest;top=0;left=0;right=0;bottom=1;" parent="uuvdcwY7xm3CegUsN7c4-21" vertex="1">
          <mxGeometry y="30" width="159.75" height="30" as="geometry" />
        </mxCell>
        <mxCell id="uuvdcwY7xm3CegUsN7c4-70" value="FK" style="shape=partialRectangle;overflow=hidden;connectable=0;top=0;left=0;bottom=0;right=0;fontStyle=0;" parent="uuvdcwY7xm3CegUsN7c4-69" vertex="1">
          <mxGeometry width="30" height="30" as="geometry">
            <mxRectangle width="30" height="30" as="alternateBounds" />
          </mxGeometry>
        </mxCell>
        <mxCell id="uuvdcwY7xm3CegUsN7c4-71" value="edition_id" style="shape=partialRectangle;overflow=hidden;connectable=0;top=0;left=0;bottom=0;right=0;align=left;spacingLeft=6;fontStyle=4;" parent="uuvdcwY7xm3CegUsN7c4-69" vertex="1">
          <mxGeometry x="30" width="129.75" height="30" as="geometry">
            <mxRectangle width="129.75" height="30" as="alternateBounds" />
          </mxGeometry>
        </mxCell>
        <mxCell id="uuvdcwY7xm3CegUsN7c4-25" value="" style="shape=partialRectangle;collapsible=0;dropTarget=0;pointerEvents=0;points=[[0,0.5],[1,0.5]];portConstraint=eastwest;top=0;left=0;right=0;bottom=0;" parent="uuvdcwY7xm3CegUsN7c4-21" vertex="1">
          <mxGeometry y="60" width="159.75" height="30" as="geometry" />
        </mxCell>
        <mxCell id="uuvdcwY7xm3CegUsN7c4-26" value="" style="shape=partialRectangle;overflow=hidden;connectable=0;top=0;left=0;bottom=0;right=0;" parent="uuvdcwY7xm3CegUsN7c4-25" vertex="1">
          <mxGeometry width="30" height="30" as="geometry">
            <mxRectangle width="30" height="30" as="alternateBounds" />
          </mxGeometry>
        </mxCell>
        <mxCell id="uuvdcwY7xm3CegUsN7c4-27" value="five_star" style="shape=partialRectangle;overflow=hidden;connectable=0;top=0;left=0;bottom=0;right=0;align=left;spacingLeft=6;" parent="uuvdcwY7xm3CegUsN7c4-25" vertex="1">
          <mxGeometry x="30" width="129.75" height="30" as="geometry">
            <mxRectangle width="129.75" height="30" as="alternateBounds" />
          </mxGeometry>
        </mxCell>
        <mxCell id="uuvdcwY7xm3CegUsN7c4-28" value="" style="shape=partialRectangle;collapsible=0;dropTarget=0;pointerEvents=0;points=[[0,0.5],[1,0.5]];portConstraint=eastwest;top=0;left=0;right=0;bottom=0;" parent="uuvdcwY7xm3CegUsN7c4-21" vertex="1">
          <mxGeometry y="90" width="159.75" height="30" as="geometry" />
        </mxCell>
        <mxCell id="uuvdcwY7xm3CegUsN7c4-29" value="" style="shape=partialRectangle;overflow=hidden;connectable=0;top=0;left=0;bottom=0;right=0;" parent="uuvdcwY7xm3CegUsN7c4-28" vertex="1">
          <mxGeometry width="30" height="30" as="geometry">
            <mxRectangle width="30" height="30" as="alternateBounds" />
          </mxGeometry>
        </mxCell>
        <mxCell id="uuvdcwY7xm3CegUsN7c4-30" value="four_star" style="shape=partialRectangle;overflow=hidden;connectable=0;top=0;left=0;bottom=0;right=0;align=left;spacingLeft=6;" parent="uuvdcwY7xm3CegUsN7c4-28" vertex="1">
          <mxGeometry x="30" width="129.75" height="30" as="geometry">
            <mxRectangle width="129.75" height="30" as="alternateBounds" />
          </mxGeometry>
        </mxCell>
        <mxCell id="uuvdcwY7xm3CegUsN7c4-31" style="shape=partialRectangle;collapsible=0;dropTarget=0;pointerEvents=0;points=[[0,0.5],[1,0.5]];portConstraint=eastwest;top=0;left=0;right=0;bottom=0;" parent="uuvdcwY7xm3CegUsN7c4-21" vertex="1">
          <mxGeometry y="120" width="159.75" height="30" as="geometry" />
        </mxCell>
        <mxCell id="uuvdcwY7xm3CegUsN7c4-32" style="shape=partialRectangle;overflow=hidden;connectable=0;top=0;left=0;bottom=0;right=0;" parent="uuvdcwY7xm3CegUsN7c4-31" vertex="1">
          <mxGeometry width="30" height="30" as="geometry">
            <mxRectangle width="30" height="30" as="alternateBounds" />
          </mxGeometry>
        </mxCell>
        <mxCell id="uuvdcwY7xm3CegUsN7c4-33" value="three_star" style="shape=partialRectangle;overflow=hidden;connectable=0;top=0;left=0;bottom=0;right=0;align=left;spacingLeft=6;" parent="uuvdcwY7xm3CegUsN7c4-31" vertex="1">
          <mxGeometry x="30" width="129.75" height="30" as="geometry">
            <mxRectangle width="129.75" height="30" as="alternateBounds" />
          </mxGeometry>
        </mxCell>
        <mxCell id="uuvdcwY7xm3CegUsN7c4-34" style="shape=partialRectangle;collapsible=0;dropTarget=0;pointerEvents=0;points=[[0,0.5],[1,0.5]];portConstraint=eastwest;top=0;left=0;right=0;bottom=0;" parent="uuvdcwY7xm3CegUsN7c4-21" vertex="1">
          <mxGeometry y="150" width="159.75" height="30" as="geometry" />
        </mxCell>
        <mxCell id="uuvdcwY7xm3CegUsN7c4-35" style="shape=partialRectangle;overflow=hidden;connectable=0;top=0;left=0;bottom=0;right=0;" parent="uuvdcwY7xm3CegUsN7c4-34" vertex="1">
          <mxGeometry width="30" height="30" as="geometry">
            <mxRectangle width="30" height="30" as="alternateBounds" />
          </mxGeometry>
        </mxCell>
        <mxCell id="uuvdcwY7xm3CegUsN7c4-36" value="two_star" style="shape=partialRectangle;overflow=hidden;connectable=0;top=0;left=0;bottom=0;right=0;align=left;spacingLeft=6;" parent="uuvdcwY7xm3CegUsN7c4-34" vertex="1">
          <mxGeometry x="30" width="129.75" height="30" as="geometry">
            <mxRectangle width="129.75" height="30" as="alternateBounds" />
          </mxGeometry>
        </mxCell>
        <mxCell id="uuvdcwY7xm3CegUsN7c4-37" style="shape=partialRectangle;collapsible=0;dropTarget=0;pointerEvents=0;fillColor=none;points=[[0,0.5],[1,0.5]];portConstraint=eastwest;top=0;left=0;right=0;bottom=0;" parent="uuvdcwY7xm3CegUsN7c4-21" vertex="1">
          <mxGeometry y="180" width="159.75" height="30" as="geometry" />
        </mxCell>
        <mxCell id="uuvdcwY7xm3CegUsN7c4-38" style="shape=partialRectangle;overflow=hidden;connectable=0;fillColor=none;top=0;left=0;bottom=0;right=0;" parent="uuvdcwY7xm3CegUsN7c4-37" vertex="1">
          <mxGeometry width="30" height="30" as="geometry">
            <mxRectangle width="30" height="30" as="alternateBounds" />
          </mxGeometry>
        </mxCell>
        <mxCell id="uuvdcwY7xm3CegUsN7c4-39" value="one_star" style="shape=partialRectangle;overflow=hidden;connectable=0;fillColor=none;top=0;left=0;bottom=0;right=0;align=left;spacingLeft=6;" parent="uuvdcwY7xm3CegUsN7c4-37" vertex="1">
          <mxGeometry x="30" width="129.75" height="30" as="geometry">
            <mxRectangle width="129.75" height="30" as="alternateBounds" />
          </mxGeometry>
        </mxCell>
        <mxCell id="uuvdcwY7xm3CegUsN7c4-53" value="" style="edgeStyle=entityRelationEdgeStyle;endArrow=ERoneToMany;startArrow=ERoneToMany;endFill=0;startFill=0;entryX=1;entryY=0.5;entryDx=0;entryDy=0;exitX=0;exitY=0.5;exitDx=0;exitDy=0;" parent="1" source="C-vyLk0tnHw3VtMMgP7b-3" target="uuvdcwY7xm3CegUsN7c4-69" edge="1">
          <mxGeometry width="100" height="100" relative="1" as="geometry">
            <mxPoint x="468" y="145" as="sourcePoint" />
            <mxPoint x="395" y="275" as="targetPoint" />
          </mxGeometry>
        </mxCell>
      </root>
    </mxGraphModel>
  </diagram>
</mxfile>
